<?xml version="1.0" standalone="no"?>
<!DOCTYPE svg PUBLIC "-//W3C//DTD SVG 20010904//EN"
 "http://www.w3.org/TR/2001/REC-SVG-20010904/DTD/svg10.dtd">
<svg version="1.0" xmlns="http://www.w3.org/2000/svg"
 width="1181.000000pt" height="886.000000pt" viewBox="0 0 1181.000000 886.000000"
 preserveAspectRatio="xMidYMid meet">

<g transform="translate(0.000000,886.000000) scale(0.100000,-0.100000)"
fill="#000000" stroke="none">
<path d="M3506 6189 c-371 -35 -768 -185 -1058 -398 l-38 -28 96 -121 c52 -67
98 -122 100 -122 3 0 44 26 92 58 280 187 574 285 927 307 190 12 447 -23 653
-90 136 -45 343 -148 448 -224 l81 -58 94 120 c52 67 95 124 97 128 6 14 -218
154 -353 219 -209 102 -402 162 -627 195 -136 20 -383 27 -512 14z"/>
<path d="M3505 5649 c-275 -37 -532 -145 -753 -315 -2 -1 40 -58 94 -126 53
-67 98 -124 100 -126 1 -2 29 16 62 40 128 95 309 170 487 203 123 23 386 16
495 -14 159 -42 284 -98 395 -175 33 -23 65 -45 71 -49 7 -4 50 44 108 117 53
68 96 127 96 130 0 2 -44 34 -98 70 -167 111 -345 184 -552 227 -111 23 -394
33 -505 18z"/>
<path d="M4955 5111 c-72 -18 -133 -70 -154 -130 -8 -24 -11 -255 -11 -802 l0
-769 175 0 175 0 2 574 3 575 180 -247 c433 -595 562 -770 600 -811 56 -61
123 -91 205 -91 90 0 147 29 178 90 l22 44 0 788 0 788 -170 0 -170 0 -2 -587
-3 -587 -210 284 c-115 157 -290 395 -389 530 -214 292 -243 325 -310 345 -53
16 -74 17 -121 6z"/>
<path d="M6680 5099 c-46 -18 -92 -61 -111 -103 -18 -39 -19 -81 -19 -813 l0
-773 170 0 170 0 2 582 3 582 360 -494 c198 -272 381 -520 408 -552 66 -80
121 -110 211 -115 93 -6 149 21 186 87 l25 45 3 783 3 782 -171 0 -170 0 -2
-587 -3 -587 -382 519 c-410 558 -460 621 -510 641 -37 16 -136 17 -173 3z"/>
<path d="M8280 4260 l0 -850 595 0 595 0 0 140 0 140 -440 0 -440 0 0 235 0
235 395 0 395 0 0 140 0 140 -392 2 -393 3 -3 193 -2 192 425 0 425 0 0 140 0
140 -580 0 -580 0 0 -850z"/>
<path d="M9640 4970 l0 -140 185 0 185 0 0 140 0 140 -185 0 -185 0 0 -140z"/>
<path d="M10110 4260 l0 -850 160 0 160 0 0 710 0 710 230 0 230 0 0 140 0
140 -390 0 -390 0 0 -850z"/>
<path d="M2220 5069 c-341 -44 -631 -285 -732 -609 -20 -64 -23 -96 -23 -225
0 -129 3 -160 23 -225 95 -302 329 -517 648 -597 50 -12 109 -17 214 -17 168
1 254 19 385 83 126 61 123 55 64 130 -28 36 -66 93 -86 128 -19 35 -38 63
-42 61 -3 -2 -34 -18 -68 -36 -331 -172 -749 28 -814 388 -39 218 84 452 291
553 172 85 351 87 517 5 38 -18 71 -34 74 -36 4 -1 25 29 48 68 24 39 62 96
87 125 24 30 44 57 44 59 0 3 -28 21 -62 40 -168 92 -373 130 -568 105z"/>
<path d="M910 4235 l0 -835 180 0 180 0 0 835 0 835 -180 0 -180 0 0 -835z"/>
<path d="M3560 5063 c-117 -20 -262 -76 -352 -137 -101 -69 -102 -49 3 -183
51 -65 94 -119 95 -121 1 -2 23 12 48 31 201 154 501 156 699 3 27 -21 50 -36
52 -34 16 16 185 234 185 239 0 10 -112 85 -175 116 -73 36 -169 68 -249 82
-57 11 -254 13 -306 4z"/>
<path d="M2982 4718 c-264 -351 -195 -851 156 -1130 88 -70 229 -141 337 -170
106 -28 335 -31 439 -5 319 80 553 295 648 597 20 64 23 96 23 220 0 163 -12
221 -70 346 -34 75 -114 195 -127 191 -3 -1 -50 -57 -103 -125 l-97 -123 31
-68 c94 -205 48 -437 -118 -594 -251 -236 -653 -201 -857 75 -108 147 -128
350 -51 513 l34 71 -94 119 c-52 66 -98 124 -103 128 -4 5 -26 -15 -48 -45z"/>
<path d="M3635 4511 c-85 -22 -165 -84 -200 -156 -15 -30 -20 -61 -20 -125 0
-75 3 -91 27 -131 31 -52 71 -89 132 -122 61 -32 202 -32 266 2 177 92 219
297 91 444 -63 71 -202 113 -296 88z"/>
</g>
</svg>
